/* XPM */
static char * edg_cir [] = {
"32 32 4 1",
"0 g black m black c black",
"1 c #eee7e7",
"2 c blue",
"3 c red",
"11111111111111111111111111111111",
"11111111111111111111111111111111",
"11111111111111111111111111111111",
"11111111111122222221111111111111",
"11111111112211111112211111111111",
"11111111121111111111121111111111",
"11111112211111111111112211111111",
"11111122111111111111111211111111",
"11111121111111111111111121111111",
"11111211111111111111111112111111",
"11111211111111111111111112111111",
"11112111111111111111111111211111",
"11112111111111111111111111211111",
"11112111111111101111111111211111",
"11112111111111000111111111211111",
"11112111111111103111111111211111",
"11112111111111111311111111211111",
"11112111111111111131111111211111",
"11111211111111111113111112111111",
"11111211111111111111311112111111",
"11111121111111111111131121111111",
"11111112111111111111113211111111",
"11111112211111111111112211111111",
"11111111121111111111121111111111",
"11111111112211111112211111111111",
"11111111111122222221111111111111",
"11111111111111111111111111111111",
"11111111111111111111111111111111",
"11111111111111111111111111111111",
"11111111111111111111111111111111",
"11111111111111111111111111111111",
"11111111111111111111111111111111"};
