/* XPM */
static char * edg_copyalign [] = {
"32 32 4 1",
"0 g black m black c black",
"1 c #eee7e7",
"2 c blue",
"3 c red",
"11111111111111111111111111111111",
"11111111111111111111111111111111",
"11111111111111101111111111111111",
"11111111111111020111111111111111",
"11111111111111203111111111111111",
"11111111111112111311111111111111",
"11111111111121111131111111111111",
"11111111111211111113111111111111",
"11111111112111111111311111111111",
"11111111121111111111131111111111",
"11111111211111111111113011111111",
"11111112111111111111110201111111",
"11111121111111111111112011111111",
"11111111111111111111121111111111",
"11111111111111111111211111111111",
"11111111111111111112111111111111",
"11111111111111111121111111111111",
"11111111111111111211111111111111",
"11111111111111112111111111111111",
"11111111111111121111111111111111",
"11111111111111211111111111111111",
"11111111111111111111111111111111",
"11111111111111111111111111111111",
"11111111111111111111111111111111",
"11111111111111111111111111111111",
"11111111131111111131111111111111",
"11111111313111111313111111111111",
"11111111111111111111111111111111",
"11111111111113331111111111111111",
"11111111111111111111111111111111",
"11111111111111111111111111111111",
"11111111111111111111111111111111"};
